<svg xmlns="http://www.w3.org/2000/svg" viewBox="0 0 32 32">
  <rect width="32" height="32" rx="4" fill="#0a0a0a"/>
  <!-- crown base -->
  <rect x="6" y="22" width="20" height="3" fill="#fafafa"/>
  <rect x="8" y="19" width="16" height="3" fill="#fafafa"/>
  <!-- crown top points -->
  <rect x="6"  y="14" width="3" height="5" fill="#fafafa"/>
  <rect x="10" y="10" width="3" height="9" fill="#fafafa"/>
  <rect x="14" y="8"  width="4" height="11" fill="#fafafa"/>
  <rect x="19" y="10" width="3" height="9" fill="#fafafa"/>
  <rect x="23" y="14" width="3" height="5" fill="#fafafa"/>
  <!-- crown tips -->
  <rect x="5"  y="12" width="3" height="2" fill="#fafafa"/>
  <rect x="9"  y="8"  width="3" height="2" fill="#fafafa"/>
  <rect x="13" y="6"  width="6" height="2" fill="#fafafa"/>
  <rect x="20" y="8"  width="3" height="2" fill="#fafafa"/>
  <rect x="24" y="12" width="3" height="2" fill="#fafafa"/>
  <!-- jewels -->
  <rect x="8"  y="16" width="2" height="2" fill="#dc2626"/>
  <rect x="15" y="13" width="2" height="2" fill="#dc2626"/>
  <rect x="22" y="16" width="2" height="2" fill="#dc2626"/>
</svg>
